<?xml version="1.0" ?><svg id="Layer_1" style="enable-background:new 0 0 70 70;" version="1.1" viewBox="0 0 70 70" xml:space="preserve" xmlns="http://www.w3.org/2000/svg" xmlns:xlink="http://www.w3.org/1999/xlink"><g><g><g><g><path d="M57.11,34.89l-0.47-0.09c-0.03-0.21-0.07-0.41-0.13-0.62L57.11,34.89z"/><path d="M57.55,28.26c-0.84-0.36-1.42-0.62-1.44-0.64c-1.12-1.37-2.16-2.93-3.15-4.41c-1.39-2.18-2.73-4.5-4.03-6.75      c-0.2-0.34-0.4-0.69-0.6-1.04c-0.76-1.31-1.95-2.31-3.37-2.84l-0.15-0.05l0,0c-0.84,1.62-0.98,3.53-0.35,5.24      c1.09,2.97,2.32,5.7,3.72,8.27c1.04,1.89,2.25,3.93,3.79,5.85c-3.81,0.26-9.82-0.72-12.21-7.03      c-3.38-8.92,2.94-21.83,2.94-21.83c3.74,10.52,7.66,6,13.03,12.84C59.6,20.78,58.98,25.37,57.55,28.26z"/></g><g><path d="M66.88,22.31c-0.5,4.09-2.85,6.03-4.88,6.8c-0.01-0.45,0-0.92,0.02-1.4c0.15-3.23,0.96-6.72,2.42-10.35l-1.08-2.77      l-2.42,0.89c-0.56,0.82-1.07,1.66-1.53,2.53c-0.43-0.94-0.99-1.9-1.72-2.89c3.74-3.49,9.09-5.33,9.09-5.33      C63.5,16.7,67.58,16.4,66.88,22.31z"/><path d="M60.66,36.08l-0.63-0.23c-1-0.36-1.9-0.91-2.75-1.5c-3.3-2.49-5.47-5.87-7.34-9.27c-1.85-3.42-3.32-7.01-4.52-10.68      c1.96,3.33,3.81,6.69,5.86,9.89c1.05,1.58,2.1,3.16,3.29,4.6c1.16,1.45,3.98,3.91,4.03,3.95c-0.07-0.28-0.26-1.85-0.28-2.35      c-0.04-1.01,0.02-2.01,0.15-3c0.48-3.94,1.94-7.69,4.12-10.88c-1.44,3.58-2.4,7.29-2.57,11.01c-0.04,0.93-0.03,1.86,0.04,2.77      c0.05,0.45,0.37,2.13,0.54,2.5c0.17,0.37,0.37,0.73,0.61,1.06c0.13,0.17,0.45,0.54,0.45,0.54      C62.41,34.89,61.42,36.53,60.66,36.08z"/></g></g></g><g><path d="M38.24,26.37c-2.32,0.76-4.74,1.19-7.17,1.28V12.88c0.77,0.03,1.53,0.09,2.29,0.18c1.25,0.87,2.43,2.22,3.48,3.95    c-0.2,2.9,0.04,5.87,1.06,8.56C38,25.84,38.11,26.11,38.24,26.37z"/><path d="M18.12,38.92h10.96v-9.27c-3.3-0.12-6.59-0.81-9.69-2.08C18.63,31.04,18.18,34.89,18.12,38.92z"/><path d="M29.07,50.19v-9.27H18.12c0.06,4.03,0.51,7.88,1.26,11.35C22.48,51,25.77,50.31,29.07,50.19z"/><path d="M16.12,38.92c0.06-4.4,0.55-8.53,1.37-12.22c-2.61-1.3-5.06-3.03-7.24-5.2c-4.28,4.6-6.97,10.7-7.21,17.42H16.12z"/><path d="M44.03,40.92c-0.06,4.4-0.55,8.52-1.37,12.21c2.61,1.31,5.06,3.04,7.24,5.2c4.28-4.6,6.97-10.7,7.21-17.42H44.03z"/><path d="M42.03,40.92H31.07v9.27c3.3,0.12,6.59,0.81,9.69,2.08C41.52,48.81,41.97,44.96,42.03,40.92z"/><path d="M16.12,40.92H3.03c0.24,6.72,2.94,12.81,7.21,17.42c2.18-2.17,4.63-3.9,7.24-5.2C16.66,49.45,16.18,45.32,16.12,40.92z"/><path d="M57.11,38.92H44.03c-0.04-2.32-0.19-4.57-0.44-6.72c2.07,1.13,4.54,1.73,7.3,1.73c0.42,0,0.84-0.02,1.23-0.04l4.52,0.91    C56.9,36.14,57.06,37.52,57.11,38.92z"/><path d="M40.3,54.25c-2.95-1.25-6.08-1.94-9.22-2.06v14.78c0.77-0.03,1.53-0.09,2.29-0.18C36.26,64.77,38.74,60.21,40.3,54.25z"/><path d="M29.07,52.19c-3.15,0.12-6.28,0.81-9.22,2.06c1.56,5.96,4.04,10.53,6.94,12.54c0.75,0.09,1.52,0.15,2.29,0.18V52.19z"/><path d="M42.17,55.12c-1.24,4.6-3.02,8.38-5.18,10.97c4.36-1.15,8.29-3.36,11.5-6.34C46.58,57.85,44.45,56.31,42.17,55.12z"/><path d="M17.98,55.12c-2.27,1.19-4.41,2.73-6.32,4.63c3.21,2.98,7.14,5.19,11.5,6.34C21,63.51,19.21,59.72,17.98,55.12z"/><path d="M19.85,25.6c2.95,1.25,6.08,1.94,9.22,2.06V12.88c-0.77,0.03-1.53,0.09-2.29,0.18C23.89,15.07,21.41,19.64,19.85,25.6z"/><path d="M17.98,24.72c1.24-4.59,3.02-8.38,5.18-10.97c-4.36,1.15-8.29,3.36-11.5,6.34C13.57,21.99,15.71,23.53,17.98,24.72z"/><path d="M42.03,38.92H31.07v-9.27c2.76-0.1,5.5-0.6,8.14-1.5c0.59,0.92,1.3,1.74,2.11,2.45C41.73,33.23,41.98,36.02,42.03,38.92z"/></g></g></svg>